<svg style="object-fit:cover" id="my-svg" version="1" baseProfile="full" width="100%" height="100%" viewBox="0 0 1920 880" xmlns="http://www.w3.org/2000/svg"><rect width="1920" height="880" fill="transparent"/><path transform="scale(1, -1)" d="M 0,880 V 0,505 C 78.09121309048612,416.0355018636496 156.18242618097224,327.07100372729917 210,320 C 263.81757381902776,312.92899627270083 293.36150836659715,387.75148695445296 349,439 C 404.63849163340285,490.24851304554704 486.3715403526395,517.9230484548891 566,560 C 645.6284596473605,602.0769515451109 723.1523302228451,658.5563192259906 786,649 C 848.8476697771549,639.4436807740094 897.0191387559809,563.8516746411483 954,512 C 1010.9808612440191,460.14832535885165 1076.7711147532318,432.036982209416 1138,487 C 1199.2288852467682,541.963017790584 1255.8964022310925,680.0003965211874 1328,643 C 1400.1035977689075,605.9996034788126 1487.6432763223982,393.9614317058341 1563,333 C 1638.3567236776018,272.0385682941659 1701.5304924793147,362.153876655476 1759,416 C 1816.4695075206853,469.846123344524 1868.2347537603428,487.423061672262 1920,505 C 1920,505 1920,880 1920,880 Z" stroke="none" stroke-width="0" fill="#2a273f90" class="transition-all duration-300 ease-in-out delay-150" style="transform-origin: center center;"/><path transform="scale(1, -1)" d="M 0,880 V 0,757 C 51.408363953580604,701.3494012530069 102.81672790716121,645.6988025060139 163,603 C 223.1832720928388,560.3011974939861 292.1414523249358,530.5541912289513 362,590 C 431.8585476750642,649.4458087710487 502.61746279309534,798.0844325781808 564,796 C 625.3825372069047,793.9155674218192 677.3886965026832,641.1080784583256 741,620 C 804.6113034973168,598.8919215416744 879.8277511961721,709.4832535885167 944,779 C 1008.1722488038279,848.5167464114833 1061.3002987126279,876.9589071876073 1125,847 C 1188.6997012873721,817.0410928123927 1262.9710539533164,728.6811176610538 1339,707 C 1415.0289460466836,685.3188823389462 1492.8154854741072,730.3166221681778 1562,772 C 1631.1845145258928,813.6833778318222 1691.7670041502552,852.052393666235 1750,849 C 1808.2329958497448,845.947606333765 1864.1164979248724,801.4738031668825 1920,757 C 1920,757 1920,880 1920,880 Z" stroke="none" stroke-width="0" fill="#2a273fff" class="transition-all duration-300 ease-in-out delay-150" style="transform-origin: center center;"/></svg>